<?xml version="1.0" encoding="utf-8"?>
<!-- Generator: Adobe Illustrator 16.0.0, SVG Export Plug-In . SVG Version: 6.00 Build 0)  -->
<!DOCTYPE svg PUBLIC "-//W3C//DTD SVG 1.1//EN" "http://www.w3.org/Graphics/SVG/1.1/DTD/svg11.dtd">
<svg version="1.1" id="Layer_1" xmlns="http://www.w3.org/2000/svg" xmlns:xlink="http://www.w3.org/1999/xlink" x="0px" y="0px"
	 width="369.755px" height="369.759px" viewBox="0 0 369.755 369.759" enable-background="new 0 0 369.755 369.759"
	 xml:space="preserve">
<g>
	<g>
		<rect x="130.269" y="250.018" fill="#D88E7E" width="109.217" height="109.217"/>
		<rect x="250.014" y="10.534" fill="#D88E7E" width="109.214" height="109.208"/>
		<rect x="10.53" y="10.534" fill="#D88E7E" width="109.216" height="109.208"/>
		<rect x="130.269" y="130.264" fill="#D88E7E" width="109.217" height="109.231"/>
		<rect x="130.269" y="10.534" fill="#D88E7E" width="109.217" height="109.208"/>
	</g>
	<path fill="#23282D" d="M250.014,0h-10.527H130.269h-10.522H0v119.741v130.276v119.741h119.747h10.522h109.217h10.527h119.741
		V250.018V119.741V0H250.014z M119.747,359.234H10.53V250.018h109.216V359.234z M119.747,239.495H10.53V130.264h109.216V239.495z
		 M119.747,119.741H10.53V10.534h109.216V119.741z M130.269,10.534h109.217v109.208H130.269V10.534z M239.486,359.234H130.269
		V250.018h109.217V359.234z M130.269,239.495V130.264h109.217v109.231H130.269z M359.228,359.234H250.014V250.018h109.214V359.234z
		 M359.228,239.495H250.014V130.264h109.214V239.495z M359.228,119.741H250.014V10.534h109.214V119.741z"/>
</g>
</svg>
