<?xml version="1.0" encoding="utf-8"?>
<!-- Generator: Adobe Illustrator 16.0.0, SVG Export Plug-In . SVG Version: 6.00 Build 0)  -->
<!DOCTYPE svg PUBLIC "-//W3C//DTD SVG 1.1//EN" "http://www.w3.org/Graphics/SVG/1.1/DTD/svg11.dtd">
<svg version="1.1" id="Layer_1" xmlns="http://www.w3.org/2000/svg" xmlns:xlink="http://www.w3.org/1999/xlink" x="0px" y="0px"
	 width="1205.521px" height="186.848px" viewBox="0 0 1205.521 186.848" enable-background="new 0 0 1205.521 186.848"
	 xml:space="preserve">
<g>
	<g>
		<g>
			<rect x="65.829" y="126.34" fill="#D88E7E" width="55.189" height="55.19"/>
			<rect x="126.339" y="5.322" fill="#D88E7E" width="55.188" height="55.186"/>
			<rect x="5.32" y="5.322" fill="#D88E7E" width="55.19" height="55.186"/>
			<rect x="65.829" y="65.826" fill="#D88E7E" width="55.189" height="55.196"/>
			<rect x="65.829" y="5.322" fill="#D88E7E" width="55.189" height="55.186"/>
		</g>
		<path fill="#23282D" d="M126.339,0h-5.321H65.829H60.51H0v60.508v65.832v60.508h60.51h5.318h55.189h5.321h60.508V126.34V60.508V0
			H126.339z M60.51,181.53H5.32v-55.19h55.19V181.53z M60.51,121.022H5.32V65.826h55.19V121.022z M60.51,60.508H5.32V5.322h55.19
			V60.508z M65.829,5.322h55.189v55.186H65.829V5.322z M121.018,181.53H65.829v-55.19h55.189V181.53z M65.829,121.022V65.826h55.189
			v55.196H65.829z M181.526,181.53h-55.188v-55.19h55.188V181.53z M181.526,121.022h-55.188V65.826h55.188V121.022z M181.526,60.508
			h-55.188V5.322h55.188V60.508z"/>
	</g>
	<g>
		<polygon fill="#D88E7E" points="356.737,19.612 240.669,19.612 240.669,41.864 286.752,41.864 286.752,164.656 310.653,164.656 
			310.653,41.864 356.737,41.864 		"/>
		<path fill="#D88E7E" d="M403.381,19.612l-59.075,145.044h25.729l16.472-41.546h52.856l16.472,41.546h25.934L422.692,19.612
			H403.381z M430.558,100.854h-35.237l3.227-8.13c4.614-11.565,9.476-24.35,14.492-38.113c4.812,13.579,9.592,26.373,14.254,38.136
			L430.558,100.854z"/>
		<path fill="#D88E7E" d="M587.47,97.065c-2.722-2.874-6.016-5.265-9.791-7.095c-1.002-0.485-2.047-0.933-3.119-1.34
			c0.817-0.508,1.603-1.035,2.347-1.585c3.096-2.296,5.665-4.948,7.633-7.882c1.973-2.935,3.419-6.182,4.306-9.657
			c0.86-3.369,1.298-6.921,1.298-10.571c0-4.592-0.744-8.926-2.208-12.881c-1.464-3.955-3.585-7.545-6.307-10.683
			c-2.698-3.104-6.001-5.798-9.818-8.012c-3.743-2.167-7.952-3.899-12.577-5.165c-1.705-0.43-3.548-0.813-5.476-1.142
			c-1.908-0.318-4-0.591-6.214-0.804c-2.194-0.213-4.625-0.375-7.23-0.476c-2.592-0.106-5.502-0.162-8.649-0.162h-37.587v145.044
			h38.834c7.042,0,13.177-0.287,18.236-0.846c5.198-0.578,10.013-1.603,14.31-3.049c5.664-1.909,10.497-4.426,14.374-7.485
			c3.844-3.036,7.018-6.417,9.425-10.054c2.412-3.636,4.163-7.453,5.211-11.347c1.031-3.821,1.553-7.55,1.553-11.075
			c0-4.935-0.734-9.426-2.181-13.344C592.376,103.478,590.232,99.985,587.47,97.065z M534.738,142.405H517.98v-40.844h22.736
			c3.817,0,7.033,0.102,9.574,0.3c2.444,0.189,4.643,0.508,6.57,0.957c3.049,0.669,5.591,1.607,7.554,2.776
			c1.908,1.142,3.452,2.458,4.579,3.918c1.132,1.46,1.921,3.078,2.426,4.939c0.531,1.987,0.803,4.153,0.803,6.45
			c0,1.955-0.253,3.9-0.757,5.79c-0.477,1.802-1.28,3.53-2.385,5.143c-1.109,1.622-2.62,3.137-4.481,4.51
			c-1.885,1.381-4.255,2.545-7.064,3.46c-2.629,0.877-5.919,1.534-9.772,1.955C543.785,142.188,539.404,142.405,534.738,142.405z
			 M563.361,71.022c-1.936,2.98-5.022,5.143-9.398,6.598c-1.709,0.55-3.678,0.97-5.863,1.252c-2.246,0.287-4.972,0.435-8.104,0.435
			H517.98V41.864h15.316c4.542,0,8.529,0.153,11.846,0.453c3.192,0.287,6.021,0.781,8.373,1.46c4.537,1.359,7.854,3.369,9.85,5.974
			c2.005,2.625,2.98,5.998,2.98,10.322C566.346,64.355,565.371,67.941,563.361,71.022z"/>
		<path fill="#D88E7E" d="M709.647,108.736c0,2.467-0.128,5.073-0.392,7.744c-0.25,2.532-0.689,4.856-1.326,6.962
			c-0.929,3.281-2.278,6.307-4.006,8.992c-1.681,2.614-3.816,4.888-6.339,6.745c-2.541,1.88-5.591,3.359-9.07,4.408
			c-3.53,1.063-7.679,1.603-12.328,1.603c-8.436,0-15.232-1.733-20.208-5.152c-5.018-3.447-8.511-8.044-10.678-14.05
			c-0.873-2.426-1.524-5.184-1.935-8.201c-0.426-3.077-0.638-6.122-0.638-9.051V19.612h-23.905v88.709
			c0,3.825,0.236,7.808,0.692,11.851c0.472,4.107,1.261,8.025,2.353,11.662c1.534,5.041,3.718,9.767,6.5,14.041
			c2.841,4.375,6.529,8.202,10.964,11.366c4.394,3.142,9.697,5.628,15.765,7.378c5.997,1.738,13.024,2.615,20.884,2.615
			c8.215,0,15.515-0.952,21.706-2.833c6.247-1.899,11.699-4.587,16.208-7.988c4.532-3.419,8.271-7.535,11.106-12.234
			c2.777-4.611,4.889-9.685,6.28-15.1c0.795-3.174,1.377-6.644,1.738-10.308c0.355-3.609,0.536-7.125,0.536-10.451V19.612h-23.907
			V108.736z"/>
		<polygon fill="#D88E7E" points="784.895,19.612 760.994,19.612 760.994,164.656 852.213,164.656 852.213,142.405 784.895,142.405 
					"/>
		<path fill="#D88E7E" d="M914.319,19.612l-59.075,145.044h25.73l16.472-41.546h52.857l16.471,41.546h25.934L933.633,19.612H914.319
			z M941.496,100.854h-35.233l3.225-8.13c4.614-11.565,9.476-24.35,14.493-38.113c4.811,13.579,9.592,26.373,14.254,38.136
			L941.496,100.854z"/>
		<polygon fill="#D88E7E" points="980.274,41.864 1026.358,41.864 1026.358,164.656 1050.26,164.656 1050.26,41.864 
			1096.342,41.864 1096.342,19.612 980.274,19.612 		"/>
		<polygon fill="#D88E7E" points="1134.798,142.405 1134.798,101.561 1194.284,101.561 1194.284,79.307 1134.798,79.307 
			1134.798,41.864 1201.704,41.864 1201.704,19.612 1110.897,19.612 1110.897,164.656 1205.521,164.656 1205.521,142.405 		"/>
	</g>
</g>
</svg>
