<?xml version="1.0" encoding="utf-8"?>
<!-- Generator: Adobe Illustrator 16.0.0, SVG Export Plug-In . SVG Version: 6.00 Build 0)  -->
<!DOCTYPE svg PUBLIC "-//W3C//DTD SVG 1.1//EN" "http://www.w3.org/Graphics/SVG/1.1/DTD/svg11.dtd">
<svg version="1.1" id="Layer_1" xmlns="http://www.w3.org/2000/svg" xmlns:xlink="http://www.w3.org/1999/xlink" x="0px" y="0px"
	 width="511.16px" height="382.46px" viewBox="0 0 511.16 382.46" enable-background="new 0 0 511.16 382.46" xml:space="preserve">
<g>
	<g>
		<g>
			<rect x="217.236" y="175.553" fill="#D88E7E" width="76.688" height="76.688"/>
			<rect x="301.316" y="7.396" fill="#D88E7E" width="76.686" height="76.682"/>
			<rect x="133.16" y="7.396" fill="#D88E7E" width="76.688" height="76.682"/>
			<rect x="217.236" y="91.466" fill="#D88E7E" width="76.688" height="76.699"/>
			<rect x="217.236" y="7.396" fill="#D88E7E" width="76.688" height="76.682"/>
		</g>
		<path fill="#23282D" d="M301.316,0h-7.392h-76.688h-7.388h-84.082v84.078v91.475v84.078h84.082h7.388h76.688h7.392h84.078v-84.078
			V84.078V0H301.316z M209.848,252.241H133.16v-76.688h76.688V252.241z M209.848,168.165H133.16V91.466h76.688V168.165z
			 M209.848,84.078H133.16V7.396h76.688V84.078z M217.236,7.396h76.688v76.682h-76.688V7.396z M293.924,252.241h-76.688v-76.688
			h76.688V252.241z M217.236,168.165V91.466h76.688v76.699H217.236z M378.002,252.241h-76.686v-76.688h76.686V252.241z
			 M378.002,168.165h-76.686V91.466h76.686V168.165z M378.002,84.078h-76.686V7.396h76.686V84.078z"/>
	</g>
	<g>
		<polygon fill="#D88E7E" points="61.491,304.251 0,304.251 0,316.039 24.416,316.039 24.416,381.092 37.08,381.092 37.08,316.039 
			61.491,316.039 		"/>
		<path fill="#D88E7E" d="M86.203,304.251l-31.295,76.841h13.628l8.727-22.011h28.005l8.725,22.011h13.738l-31.298-76.841H86.203z
			 M100.602,347.291H81.934l1.71-4.309c2.443-6.128,5.017-12.896,7.676-20.191c2.549,7.195,5.082,13.974,7.554,20.204
			L100.602,347.291z"/>
		<path fill="#D88E7E" d="M183.729,345.285c-1.44-1.525-3.188-2.79-5.187-3.764c-0.529-0.253-1.084-0.489-1.652-0.705
			c0.433-0.27,0.85-0.549,1.246-0.841c1.639-1.217,3.001-2.624,4.043-4.177c1.045-1.554,1.812-3.274,2.28-5.114
			c0.456-1.784,0.69-3.668,0.69-5.602c0-2.434-0.394-4.728-1.171-6.825c-0.777-2.095-1.9-3.996-3.343-5.658
			c-1.428-1.644-3.181-3.073-5.2-4.244c-1.983-1.15-4.215-2.068-6.665-2.738c-0.902-0.228-1.88-0.431-2.897-0.605
			c-1.016-0.17-2.122-0.313-3.293-0.427c-1.163-0.112-2.45-0.199-3.83-0.249c-1.374-0.058-2.918-0.087-4.584-0.087h-19.912v76.841
			h20.573c3.73,0,6.982-0.151,9.662-0.449c2.754-0.305,5.303-0.848,7.579-1.614c3.001-1.012,5.564-2.347,7.618-3.965
			c2.035-1.608,3.716-3.398,4.991-5.328c1.279-1.923,2.207-3.946,2.762-6.01c0.545-2.025,0.821-4.002,0.821-5.867
			c0-2.615-0.387-4.995-1.156-7.071C186.33,348.682,185.194,346.831,183.729,345.285z M155.793,369.302h-8.878v-21.636h12.047
			c2.023,0,3.726,0.052,5.071,0.157c1.293,0.104,2.46,0.27,3.479,0.508c1.615,0.356,2.964,0.85,4.004,1.47
			c1.012,0.603,1.83,1.304,2.427,2.076c0.597,0.775,1.018,1.631,1.283,2.618c0.284,1.053,0.425,2.198,0.425,3.415
			c0,1.036-0.133,2.066-0.402,3.069c-0.25,0.955-0.678,1.871-1.262,2.725c-0.587,0.86-1.387,1.662-2.375,2.388
			c-0.997,0.731-2.253,1.35-3.739,1.832c-1.393,0.467-3.138,0.813-5.179,1.038C160.586,369.19,158.265,369.302,155.793,369.302z
			 M170.957,331.488c-1.023,1.575-2.661,2.722-4.978,3.494c-0.905,0.29-1.948,0.515-3.106,0.661
			c-1.189,0.155-2.634,0.232-4.292,0.232h-11.666v-19.837h8.116c2.406,0,4.518,0.083,6.275,0.241
			c1.691,0.149,3.189,0.414,4.435,0.773c2.404,0.719,4.162,1.784,5.221,3.165c1.063,1.391,1.579,3.179,1.579,5.467
			C172.54,327.953,172.024,329.854,170.957,331.488z"/>
		<path fill="#D88E7E" d="M248.457,351.467c0,1.308-0.066,2.688-0.209,4.104c-0.131,1.341-0.365,2.569-0.703,3.687
			c-0.491,1.737-1.207,3.343-2.122,4.765c-0.889,1.385-2.021,2.591-3.357,3.573c-1.347,0.999-2.961,1.782-4.806,2.333
			c-1.867,0.566-4.066,0.85-6.532,0.85c-4.468,0-8.07-0.913-10.704-2.727c-2.659-1.826-4.507-4.264-5.658-7.444
			c-0.462-1.285-0.808-2.744-1.024-4.346c-0.228-1.632-0.34-3.244-0.34-4.794v-47.216h-12.663v46.994
			c0,2.026,0.125,4.139,0.365,6.279c0.251,2.176,0.667,4.251,1.246,6.18c0.817,2.67,1.971,5.171,3.444,7.437
			c1.507,2.318,3.461,4.348,5.811,6.022c2.328,1.664,5.136,2.982,8.35,3.906c3.177,0.925,6.901,1.391,11.064,1.391
			c4.352,0,8.222-0.508,11.498-1.503c3.312-1.005,6.199-2.429,8.59-4.229c2.402-1.815,4.381-3.998,5.883-6.482
			c1.469-2.441,2.586-5.131,3.326-8.002c0.421-1.683,0.728-3.519,0.92-5.461c0.187-1.912,0.282-3.773,0.282-5.537v-46.994h-12.663
			V351.467z"/>
		<polygon fill="#D88E7E" points="288.32,304.251 275.658,304.251 275.658,381.092 323.982,381.092 323.982,369.302 288.32,369.302 
					"/>
		<path fill="#D88E7E" d="M356.887,304.251l-31.296,76.841h13.63l8.725-22.011h28.004l8.725,22.011h13.738l-31.293-76.841H356.887z
			 M371.286,347.291h-18.668l1.71-4.309c2.443-6.128,5.021-12.896,7.678-20.191c2.549,7.195,5.082,13.974,7.55,20.204
			L371.286,347.291z"/>
		<polygon fill="#D88E7E" points="391.828,316.039 416.243,316.039 416.243,381.092 428.903,381.092 428.903,316.039 
			453.318,316.039 453.318,304.251 391.828,304.251 		"/>
		<polygon fill="#D88E7E" points="473.69,369.302 473.69,347.666 505.206,347.666 505.206,335.876 473.69,335.876 473.69,316.039 
			509.137,316.039 509.137,304.251 461.03,304.251 461.03,381.092 511.16,381.092 511.16,369.302 		"/>
	</g>
</g>
</svg>
